<?xml version="1.0" encoding="UTF-8"?><svg id="b" xmlns="http://www.w3.org/2000/svg" viewBox="0 0 1281.59 291.03"><defs><style>.d{fill:#fff;}.e{fill:#3b3777;}</style></defs><g id="c"><g><path class="d" d="M256.2,193.69c-.63-13.47-1.55-24.61-2.71-33.35-.69-4.67-5.93-7.76-15.68-9.21-9.75-1.45-20.26-1.67-31.52-.6-11.27,1.04-21.46,3.16-30.58,6.31-9.09,3.12-13.41,6.94-12.94,11.36-.95,6.66-1.99,13.29-3.15,19.88-1.17,6.63-6.85,9.85-17.01,9.75-14.01-.73-24.74-4.7-32.22-12.02-7.48-7.29-11.8-15.59-12.97-24.87-1.17-9.28,.82-18.43,5.96-27.42,5.14-8.99,13.35-15.53,24.68-19.6,8.17-2.81,17.58-3.91,28.21-3.34,2.46,.35,3.6,2.18,3.41,5.43-.16,3.28,2.27,5.27,7.29,5.96,3.6,.57,9.56,.57,17.86,0,8.3-.6,16.66-1.8,25.15-3.6,8.46-1.8,15.78-4.26,21.96-7.35,6.19-3.09,9.06-6.91,8.58-11.49-.47-29.88-11.01-50.55-31.62-62.01-20.61-11.42-43.52-16.57-68.76-15.4-38.18,1.99-69.8,14.36-94.86,37.14C20.25,82.01,5.45,113.73,.88,154.37c-4.07,37.24,6.03,68.54,30.33,93.88,24.27,25.34,54.4,39.41,90.38,42.22,20.32,1.42,40.99-.41,62.01-5.43,1.04,1.77,2.12,2.68,3.15,2.81,7.13,2.08,19.12,2.9,36.01,2.46,16.88-.47,26.26-1.93,28.12-4.39,1.99-1.77,3.47-7.67,4.45-17.7,1.01-10.04,1.55-21.58,1.67-34.68,.13-13.06-.16-26.35-.79-39.86M17.25,221.87c-2.87-5.14-5.17-10.57-7.13-16.12-1.92-5.59-3.38-11.33-4.45-17.1-1.01-5.81-1.64-11.68-1.8-17.58-.13-5.87,.1-11.77,.82-17.61,1.39-11.65,4.48-23.1,9.4-33.64-3.35,11.14-5.49,22.5-6.25,33.95-.38,5.71-.47,11.42-.16,17.14,.32,5.71,.92,11.39,1.96,17.01,.98,5.62,2.37,11.17,4.1,16.6,1.7,5.46,3.88,10.76,6.31,15.94,4.95,10.32,11.39,19.91,19.12,28.62-8.9-7.51-16.35-16.85-21.93-27.2m169.84-64.66c-2.84,.73-5.71,1.55-8.49,2.46-2.74,.95-5.46,2.05-7.73,3.76-1.14,.82-2.18,1.77-3,2.9-.85,1.14-1.42,2.4-1.96,3.72-1.01,2.68-1.52,5.58-1.89,8.49-.38,2.9-.66,5.87-1.2,8.84-.57,2.9-1.42,5.84-2.97,8.39,1.2-2.71,1.89-5.62,2.21-8.52,.32-2.93,.44-5.87,.69-8.84,.25-3,.73-6,1.7-8.9,.54-1.42,1.2-2.84,2.15-4.13,.92-1.26,2.05-2.37,3.31-3.28,2.49-1.8,5.37-2.97,8.21-3.88,2.87-.85,5.74-1.64,8.68-2.24,5.81-1.26,11.71-1.99,17.58-2.71-5.78,1.36-11.58,2.49-17.29,3.94"/><path class="d" d="M440.05,117.23c11.56-17.17,22.74-33.57,33.55-49.22,10.8-15.65,20.35-27.44,28.64-35.39,3.62-3.5,10.69-6.07,21.2-7.71,10.51-1.63,21.46-2.39,32.85-2.28,11.39,.12,21.72,.99,31.01,2.63,9.29,1.64,14.63,3.91,16.03,6.83,2.22,5.14,3.97,20.29,5.26,45.46,1.28,25.17,1.92,52.35,1.92,81.54s-.7,56.26-2.1,81.19c-1.4,24.93-3.68,39.68-6.83,44.23-2.45,2.8-14.37,4.59-35.74,5.34-21.37,.76-36.38,.26-45.02-1.49-3.5-.7-6.72-10.8-9.63-30.31-2.92-19.5-4.91-39.24-5.96-59.21-2.34,2.45-6.51,6.83-12.53,13.14-6.02,6.31-12.47,12.79-19.36,19.44-6.89,6.66-13.52,12.56-19.88,17.69-6.37,5.14-11.06,7.71-14.1,7.71s-7.62-2.45-13.75-7.36c-6.13-4.9-12.5-10.54-19.09-16.9-6.6-6.36-12.79-12.58-18.57-18.66-5.78-6.07-9.78-10.28-12-12.61-1.4,18.69-3.5,37.61-6.31,56.76-2.8,19.15-5.84,29.26-9.11,30.31-4.32,1.29-10.75,2.04-19.27,2.28-8.53,.23-17.17,.17-25.93-.18-8.76-.35-16.61-1.08-23.56-2.19-6.95-1.11-10.89-2.37-11.83-3.77-3.15-4.44-5.55-19.38-7.18-44.85-1.64-25.46-2.51-52.93-2.63-82.42-.12-29.49,.35-56.82,1.4-81.98,1.05-25.17,2.8-39.68,5.26-43.53,1.75-2.8,7.3-5.02,16.64-6.66,9.34-1.63,19.62-2.48,30.83-2.54,11.21-.06,21.98,.73,32.32,2.36,10.34,1.64,17.37,4.2,21.11,7.71,8.17,7.94,17.78,19.74,28.82,35.39,11.04,15.65,22.22,32.06,33.55,49.22"/><path class="d" d="M638.64,144.69c0-.93,.07-1.86,.26-2.77,.54-2.62,2.35-4.39,4.27-6.1,4.13-3.68,8.47-5.88,13.7-7.44,12.32-3.68,21.75-5.72,36.41-6.13,14.65-.41,28.08,.79,40.29,3.59,6.27,1.44,11.82,2.73,17.4,6.05,4.02,2.4,5.11,6.05,4.87,10.51,0,8.68-.92,33.7-1.37,42.37-.45,8.6-1.05,17.22-1.46,25.8-.3,6.09-.78,12.15-1.28,18.23-.26,3.18-.54,6.36-.85,9.54-.29,3.03-.93,6.2-.93,9.24-2.1,19.62-4.44,31.18-7.01,34.68-2.45,4.67-14.66,7.45-36.61,8.32-21.96,.88-37.49-.61-46.6-4.47-4.09-1.75-7.94-13.78-11.56-36.09-3.04-18.73-5.57-37.51-7.33-56.41-.95-10.17-1.73-36.6-2.15-46.8-.03-.7-.05-1.41-.05-2.11"/><path class="d" d="M1026.72,282.25c-1.4,2.8-5.6,4.85-12.61,6.13-7.01,1.29-14.75,2.04-23.21,2.28-8.47,.23-16.58,0-24.35-.7-7.77-.7-13.05-1.69-15.85-2.98-3.97-1.75-9.75-6.39-17.34-13.93-7.59-7.53-15.36-15.71-23.3-24.52-7.94-8.82-15.18-17.14-21.72-24.96-6.54-7.82-10.68-12.96-12.44-15.42-1.75,20.79-3.56,38.63-5.43,53.52-1.87,14.89-4.26,23.04-7.18,24.44-8.64,3.97-23.5,5.49-44.58,4.56-21.08-.93-32.73-3.74-34.95-8.41-2.57-3.5-4.76-15.24-6.57-35.21-1.81-19.97-3.04-42.92-3.68-68.84-.64-25.93-.61-52.2,.09-78.83,.7-26.63,2.39-48.35,5.08-65.16,.47-3.39,4.58-5.98,12.35-7.79,7.76-1.81,16.7-2.86,26.8-3.15,10.1-.29,20.26,.15,30.48,1.31,10.22,1.17,18.07,2.92,23.56,5.26,8.06,3.62,18.13,13.25,30.22,28.9,12.09,15.65,20.88,27.5,26.37,35.56-.35-12.5-.73-23.56-1.14-33.2-.41-9.63-.38-16.73,.09-21.28,.23-5.6,5.6-9.87,16.11-12.79,10.51-2.92,22.04-4.58,34.6-4.99,12.55-.41,24.11,.44,34.69,2.54,10.57,2.1,16.14,5.32,16.73,9.64,1.75,17.17,2.83,39.12,3.24,65.87,.41,26.74,.41,53.08,0,79-.41,25.93-1.2,48.79-2.36,68.58-1.17,19.8-2.4,31.33-3.68,34.6"/><path class="d" d="M1271.44,212.18c-12.96,30.48-33.4,51.36-61.31,62.63-27.91,11.27-57.28,16.67-88.11,16.2-10.51-.23-20.64-.96-30.39-2.19-9.75-1.23-16.79-2.77-21.11-4.64-6.77-2.8-12.2-16.73-16.29-41.78-4.09-25.05-6.54-52.47-7.36-82.24-.82-29.78,0-57.52,2.45-83.21,2.45-25.69,7.01-40.58,13.66-44.67,6.65-4.2,16.82-7.3,30.48-9.28,21.84-3.04,45.46-2.74,70.86,.88,25.4,3.62,46.92,12.44,64.55,26.45,23.12,18.69,38.92,43.47,47.39,74.36,8.47,30.89,6.86,60.06-4.82,87.5m-132.43-78.48c-1.99,6.42-2.43,15.85-1.31,28.29,1.11,12.44,3.71,19.77,7.8,21.98,1.87,1.17,5.61,1.64,11.21,1.4,9.11-.23,16.82-2.3,23.12-6.22,6.31-3.91,9.81-9.72,10.51-17.43,.82-9.46-2.6-17.52-10.25-24.17-7.65-6.66-15.68-10.39-24.09-11.21-3.39-.23-6.8,.03-10.25,.79-3.45,.76-5.69,2.95-6.74,6.57"/><polygon class="d" points="230 21.61 240.49 44.51 233.49 24.25 230 21.61"/><polygon class="d" points="490.94 32.02 472.78 52.9 486.4 32.02 490.94 32.02"/><polygon class="d" points="773.04 25.81 770.88 40.31 770.88 28.5 773.04 25.81"/><polygon class="d" points="1038.02 18.07 1040.14 40.79 1040.14 24.81 1038.02 18.07"/><polygon class="d" points="641.59 271.17 645.69 287.73 644.68 288.03 641.59 271.17"/><path class="e" d="M463.7,89.43c-1.73,2.93-3.56,5.79-5.4,8.63-1.85,2.84-3.75,5.65-5.66,8.45-1.93,2.79-3.86,5.57-5.84,8.33-1.97,2.76-3.98,5.49-6.01,8.2l-.5,.66-.45-.65c-2.16-3.11-4.29-6.23-6.31-9.44,2.5,2.85,4.89,5.79,7.25,8.74h-.95c1.86-2.82,3.76-5.63,5.69-8.42,1.92-2.79,3.88-5.56,5.85-8.32,1.99-2.75,4-5.48,6.04-8.19,2.06-2.7,4.13-5.39,6.3-8.01"/><path class="e" d="M868.04,249.13c-.03-2.12,.11-4.23,.23-6.33,.12-2.11,.27-4.21,.43-6.31,.32-4.2,.69-8.4,1.1-12.59,.38-4.19,.85-8.37,1.24-12.56,.22-2.09,.43-4.18,.61-6.26l.25-3.12,.09-1.54c.02-.5,0-.95,0-1.43l.04-3.17,1.87,2.37c1.21,1.54,2.4,3.1,3.59,4.66,1.2,1.55,2.39,3.12,3.57,4.69l3.54,4.71c1.18,1.57,2.34,3.16,3.54,4.71-1.45-1.33-2.82-2.75-4.18-4.18-1.35-1.43-2.69-2.88-4-4.34-1.32-1.46-2.62-2.93-3.91-4.42-1.29-1.48-2.58-2.97-3.83-4.48l1.9-.8c.03,.57,.07,1.17,.07,1.72l-.04,1.61c-.03,1.08-.1,2.12-.17,3.19-.16,2.11-.34,4.22-.54,6.32-.44,4.2-.89,8.39-1.47,12.57-.54,4.18-1.15,8.35-1.82,12.51-.63,4.17-1.44,8.31-2.13,12.47"/><path class="e" d="M647.55,168.68c1.13,8.25,2.07,16.51,2.96,24.77,.47,4.13,.86,8.26,1.3,12.39l1.24,12.4,2.39,24.8c.81,8.27,1.6,16.53,2.64,24.78-2.04-8.08-3.36-16.32-4.53-24.56-1.16-8.24-2.1-16.51-2.92-24.79-.38-4.14-.77-8.28-1.1-12.43-.32-4.15-.65-8.29-.9-12.44-.53-8.3-.95-16.61-1.07-24.94"/><path class="e" d="M1094.31,28.5c-4.14,1.23-8.28,2.34-12.38,3.52-4.08,1.2-8.2,2.39-11.96,4.09l-1.35,.68c-.43,.24-.8,.52-1.21,.77-.39,.31-.78,.64-1.16,.97-.36,.36-.73,.7-1.08,1.06-1.42,1.45-2.58,3.15-3.6,4.95-2.01,3.64-3.24,7.75-4.49,11.88,.26-4.3,.97-8.65,2.79-12.72,.89-2.04,2.13-3.95,3.61-5.66,.36-.44,.79-.82,1.18-1.22,.42-.38,.84-.75,1.29-1.12,.49-.33,.98-.7,1.48-.99l1.51-.79c2.05-.9,4.12-1.6,6.21-2.22,2.1-.56,4.2-1.11,6.32-1.5,4.24-.85,8.51-1.45,12.83-1.68"/><path class="e" d="M1270.98,200.06c-2.82,9.36-6.74,18.46-11.8,26.93-4.96,8.53-11.13,16.39-18.22,23.35-7.16,6.86-15.33,12.78-24.25,17.08-8.85,4.36-18.12,7.67-27.58,10.17,8.89-4.09,17.71-8.18,26.1-12.97,8.38-4.74,16-10.58,22.92-17.2,6.84-6.7,12.98-14.13,18.37-22.12,5.45-7.97,10.08-16.5,14.47-25.24"/><path class="e" d="M39.19,249.07c-8.9-7.51-16.35-16.85-21.93-27.2-2.87-5.14-5.17-10.57-7.13-16.12-1.92-5.59-3.38-11.33-4.45-17.1-1.01-5.81-1.64-11.68-1.8-17.58-.13-5.87,.1-11.77,.82-17.61,1.39-11.64,4.48-23.1,9.4-33.64-3.35,11.14-5.49,22.5-6.25,33.96-.38,5.71-.47,11.42-.16,17.14,.32,5.71,.92,11.39,1.96,17.01,.98,5.62,2.37,11.17,4.1,16.6,1.7,5.46,3.88,10.76,6.31,15.94,4.95,10.32,11.39,19.91,19.12,28.62"/><path class="e" d="M1022.61,221.91c.17,6.56,.1,13.12-.07,19.66-.06,3.27-.21,6.55-.32,9.82l-.48,9.81c-.21,3.27-.4,6.53-.67,9.82l-.11,1.24c-.06,.44-.08,.88-.18,1.31-.16,.86-.42,1.76-.86,2.62-.43,.86-1.09,1.64-1.88,2.21-.79,.57-1.66,.93-2.52,1.18-.43,.13-.87,.21-1.3,.29l-1.22,.19c-.81,.12-1.63,.24-2.44,.35-1.63,.21-3.26,.4-4.9,.57-3.27,.3-6.56,.57-9.85,.46,3.25-.43,6.47-1.01,9.67-1.64,1.6-.31,3.21-.62,4.8-.96l2.39-.5,1.19-.26c.37-.1,.73-.18,1.08-.31,1.4-.49,2.51-1.31,3.06-2.53,.29-.61,.47-1.3,.58-2.05,.07-.37,.07-.75,.11-1.13l.07-1.21,.54-9.79,.61-9.8c.24-3.26,.44-6.53,.73-9.79,.52-6.53,1.12-13.05,1.96-19.56"/><path class="e" d="M743.97,250.31c.05,4.09,.11,8.14-.16,12.24-.11,2.05-.37,4.1-.72,6.15-.37,2.04-.9,4.07-1.6,6.06-.76,1.98-1.75,3.94-3.17,5.63-1.43,1.66-3.26,3.03-5.27,3.82-2,.83-4.09,1.2-6.14,1.39-2.06,.17-4.11,.19-6.15,.08,3.99-.84,8.07-1.45,11.49-3.2,3.43-1.73,5.67-4.91,6.95-8.56,1.37-3.68,2.09-7.6,2.72-11.58,.62-3.98,1.09-8.05,2.05-12.03"/><path class="e" d="M204.38,153.27c-5.78,1.36-11.58,2.49-17.29,3.95-2.84,.73-5.71,1.55-8.49,2.46-2.74,.95-5.46,2.05-7.73,3.76-1.14,.82-2.18,1.77-3,2.9-.85,1.14-1.42,2.4-1.96,3.72-1.01,2.68-1.52,5.59-1.89,8.49-.38,2.9-.66,5.87-1.2,8.83-.57,2.9-1.42,5.84-2.97,8.4,1.2-2.71,1.89-5.62,2.21-8.52,.32-2.93,.44-5.87,.69-8.84,.25-3,.73-5.99,1.7-8.9,.54-1.42,1.2-2.84,2.15-4.13,.92-1.26,2.05-2.37,3.31-3.28,2.49-1.8,5.36-2.97,8.2-3.88,2.87-.85,5.74-1.64,8.68-2.24,5.81-1.26,11.71-1.99,17.58-2.71"/><path class="e" d="M195.75,286.71c-1.12,.23-2.25,.42-3.41,.51-1.15,.09-2.35,.08-3.54-.21-.3-.08-.6-.17-.89-.29-.14-.04-.33-.16-.49-.25-.14-.11-.31-.21-.42-.34-.52-.5-.82-1.08-1.07-1.65-.49-1.13-.74-2.3-1.04-3.31l.98,.52c-1.45,.47-2.91,.9-4.38,1.31-1.46,.43-2.94,.79-4.42,1.17-1.48,.35-2.97,.69-4.47,.97-1.5,.28-3.01,.54-4.55,.65,2.89-1.01,5.76-1.99,8.64-2.94,1.45-.45,2.89-.93,4.35-1.37,1.45-.45,2.91-.89,4.36-1.31l.77-.22,.22,.74c.35,1.17,.51,2.26,.87,3.25,.18,.49,.4,.93,.68,1.26,.15,.17,.27,.28,.48,.38,.23,.12,.46,.22,.71,.31,.99,.36,2.1,.51,3.21,.61,1.12,.09,2.26,.12,3.41,.18"/><path class="e" d="M325.94,32.83c-7.62,1.43-15.21,2.27-22.83,3.15-3.73,.44-7.42,1.02-10.55,2.33-1.46,.63-2.72,1.53-3.54,2.66-.41,.56-.73,1.17-.94,1.82-.06,.16-.1,.33-.14,.5-.05,.17-.08,.34-.1,.51-.03,.17-.05,.35-.06,.53l-.03,.61c-.35,7.67-.87,15.33-1.58,22.98-.73,7.65-1.61,15.29-2.98,22.9-.66-7.71-.83-15.39-.85-23.05,0-7.67,.18-15.32,.54-22.97l.05-.83c.02-.3,.05-.6,.11-.9,.04-.3,.1-.6,.18-.89,.07-.3,.15-.59,.25-.88,.38-1.17,.97-2.28,1.72-3.24,1.52-1.93,3.55-3.24,5.65-4.02,4.05-1.46,8.09-1.75,11.98-1.85,1.95-.04,3.87-.03,5.77-.04,1.93,.02,3.85,.05,5.78,.1,3.86,.13,7.7,.25,11.56,.59"/><path class="d" d="M749.91,93.99c-5.8,7.17-20.89,9.56-29.38,12.03-12.82,3.72-26,6.55-39.4,6.8-11.03,.21-22.49-2.45-30.95-9.53-11.98-10.04-15.84-27.8-11.54-42.82,3.58-12.49,12.17-23.29,23.04-30.42,.44-.3,.88-.58,1.32-.86,4.14-2.57,8.56-4.63,13.16-6.22,.07,.49,.16,1,.28,1.5,1.89,7.77,9.69,11.85,17.23,12.65,6.53,.69,13.09-.63,19.62-1.37,6.52-.74,13.42-.84,19.32,2.08,3.72,1.85,6.83,4.81,11.13,5.6,1.43,.26,2.89,.18,4.24-.34,1.37,2.89,2.64,6.43,3.7,10.29,3.84,14.02,4.9,32.38-1.78,40.62"/><path class="d" d="M757.57,36c-1.52-13.19-11.61-24.27-23.64-29.91-12.03-5.62-25.72-6.53-38.98-5.94-5.88,.26-12.05,.92-16.96,4.16-4.16,2.73-6.97,7.05-9.49,11.34-2.69,4.6-5.18,9.37-6.82,14.39-.67,1.99-1.2,4.02-1.55,6.08-1.25,7.31-.16,15.27,4.3,21.19,10.32,13.67,30.67,6.57,41.38-2.59,1.78-1.52,3.45-3.17,5.48-4.28,2.04-1.11,4.58-1.62,6.69-.67,3.8,1.71,4.33,6.83,4.07,10.99-.25,3.88-.4,7.8,2.08,11.03,.18,.21,.39,.44,.67,.51,.55,.12,1.66-.99,2.08-1.29,.9-.62,1.8-1.23,2.7-1.87,1.74-1.2,3.49-2.4,5.21-3.59,3.54-2.45,7.08-4.9,10.62-7.35,2.17-1.5,4.37-3.05,6.29-4.84,1.37-1.28,2.61-2.7,3.57-4.32,2.29-3.88,2.82-8.58,2.31-13.05m-5.06,.49c-.33,2.92-1.34,5.16-4.02,6.39-.17,.07-.33,.14-.51,.19-1.36,.51-2.82,.6-4.25,.33-4.3-.79-7.42-3.75-11.13-5.6-5.9-2.92-12.81-2.82-19.32-2.08-6.54,.74-13.09,2.06-19.62,1.37-7.54-.79-15.34-4.88-17.23-12.65-.12-.49-.21-1-.28-1.5-.3-2.54,.16-5.14,1.39-7.4,3.28-5.94,10.07-7.03,16.26-7.4,10.97-.65,22.02,0,32.83,1.97,.05,.02,.12,.02,.18,.04,10.53,1.94,19.53,8.89,23.89,18.67,1.21,2.77,2.06,5.51,1.81,7.64"/></g></g></svg>