<?xml version="1.0" encoding="UTF-8"?><svg id="a" xmlns="http://www.w3.org/2000/svg" viewBox="0 0 1242.55 474.48"><defs><style>.c{fill:#6236a9;}</style></defs><g><path class="c" d="M579.12,193.2c0,1.16-.77,2.17-1.89,2.48-5.15,1.42-7.69,2.58-9.38,4.26-1.69,1.69-2.84,4.23-4.26,9.38-.31,1.12-1.32,1.89-2.48,1.89s-2.17-.77-2.48-1.89c-1.42-5.15-2.58-7.69-4.27-9.38-1.69-1.69-4.23-2.84-9.38-4.26-1.12-.31-1.89-1.33-1.89-2.48s.77-2.17,1.89-2.48c5.15-1.42,7.69-2.58,9.38-4.26,1.69-1.69,2.84-4.23,4.27-9.38,.31-1.12,1.32-1.89,2.48-1.89s2.17,.77,2.48,1.89c1.42,5.15,2.58,7.69,4.26,9.38,1.69,1.69,4.23,2.84,9.38,4.26,1.12,.31,1.89,1.32,1.89,2.48Z"/><path class="c" d="M546.96,295.88v-76.28c0-.97,.79-1.76,1.76-1.76h24.61c.97,0,1.76,.79,1.76,1.76v76.28c0,.97-.79,1.76-1.76,1.76h-24.61c-.97,0-1.76-.79-1.76-1.76Z"/><path class="c" d="M590.7,295.88v-118.94c0-.97,.79-1.76,1.76-1.76h24.77c.97,0,1.76,.79,1.76,1.76v118.94c0,.97-.79,1.76-1.76,1.76h-24.77c-.97,0-1.76-.79-1.76-1.76Z"/><path class="c" d="M633.09,295.88v-118.94c0-.97,.79-1.76,1.76-1.76h24.77c.97,0,1.76,.79,1.76,1.76v118.94c0,.97-.79,1.76-1.76,1.76h-24.77c-.97,0-1.76-.79-1.76-1.76Z"/><path class="c" d="M752.48,217.85c.97,0,1.76,.79,1.76,1.76v39.01c0,9.11-.69,15.75-2.05,19.91-1.48,4.32-3.95,8.22-7.43,11.69-3.32,3.48-7.69,6.11-13.11,7.9-5.16,1.74-11.38,2.61-18.64,2.61s-13.35-.87-18.41-2.61c-5.21-1.69-9.69-4.32-13.43-7.9-3.42-3.26-5.85-7.11-7.27-11.53-1.42-4.11-2.13-10.8-2.13-20.07v-39.01c0-.97,.79-1.76,1.76-1.76h23.35c.97,0,1.76,.79,1.76,1.76v40.83c0,6.69,1.13,11.48,3.4,14.38,2.05,3.06,5.61,4.58,10.67,4.58s8.6-1.47,10.78-4.42c2.19-2.95,3.28-7.79,3.28-14.54v-40.83c0-.97,.79-1.76,1.76-1.76h23.98Z"/><path class="c" d="M759.3,289.71l4.78-17.56c.33-1.22,1.79-1.69,2.78-.91,3.55,2.79,7.39,4.95,11.52,6.5,4.9,1.94,9.85,2.92,14.85,2.92,3.58,0,6.27-.6,8.06-1.81,1.84-1.1,2.76-2.71,2.76-4.81,0-3.52-3.71-6.15-11.14-7.89-2.58-.58-4.53-1.08-5.85-1.5-8.59-2.53-14.67-5.61-18.25-9.25-3.9-3.74-5.85-8.59-5.85-14.55,0-7.69,2.92-13.88,8.77-18.57,5.64-4.64,13.51-6.96,23.62-6.96,4.9,0,10.11,.58,15.64,1.74,4.27,.88,9.2,2.52,14.77,4.93,.81,.35,1.23,1.27,.98,2.12l-4.72,15.68c-.33,1.1-1.62,1.59-2.6,.98-3.16-1.96-6.34-3.47-9.53-4.52-3.63-1.31-7.45-1.97-11.46-1.97-3.27,0-5.72,.5-7.35,1.5-1.58,.95-2.37,2.39-2.37,4.34,0,2.73,3.71,5.1,11.14,7.1,2.42,.74,3.66,1.1,3.71,1.1,9.69,2.74,16.48,5.97,20.38,9.71,3.79,3.95,5.69,9.08,5.69,15.39,0,8.16-3.13,14.73-9.4,19.73-6.43,5.05-14.72,7.58-24.89,7.58-7.06,0-13.55-.8-19.47-2.41-5.5-1.49-10.77-3.7-15.79-6.62-.68-.4-1.01-1.21-.8-1.98Z"/><path class="c" d="M840.99,295.89l-.15-56.38c0-.97-.79-1.75-1.76-1.75h-8.42c-.97,0-1.76-.79-1.76-1.76v-16.4c0-.97,.79-1.76,1.76-1.76h8.42c.97,0,1.76-.79,1.76-1.76v-20.27c0-.97,.79-1.76,1.76-1.76h24.46c.97,0,1.76,.79,1.76,1.76v20.27c0,.97,.79,1.76,1.76,1.76h8.26c.97,0,1.76,.79,1.76,1.76v16.4c0,.97-.79,1.76-1.76,1.76h-8.26c-.97,0-1.76,.79-1.76,1.76v56.37c0,.97-.79,1.76-1.76,1.76h-24.3c-.97,0-1.75-.78-1.76-1.75Z"/><path class="c" d="M885.76,295.88v-76.28c0-.97,.79-1.76,1.76-1.76h23.03c.97,0,1.76,.79,1.76,1.76v9.57c0,1.79,2.34,2.42,3.27,.89,2.23-3.68,4.86-6.62,7.87-8.81,4.79-3.42,10.56-5.14,17.3-5.14,1.53,0,2.66,.05,3.4,.16,.58,.05,1.11,.09,1.58,.12h.01c.99,.06,1.72,.95,1.62,1.94l-2.28,21.74c-.11,1.08-1.17,1.8-2.22,1.51s-2.09-.55-2.98-.72c-.06-.01-.12-.02-.18-.03-2.06-.2-3.58-.31-4.57-.31-6.85,0-12.14,2.11-15.88,6.32-3.69,4.16-5.53,10.09-5.53,17.78v31.27c0,.97-.79,1.76-1.76,1.76h-24.46c-.97,0-1.76-.79-1.76-1.76Z"/><path class="c" d="M1037.74,219.6v76.28c0,.97-.79,1.76-1.76,1.76h-22.4c-.97,0-1.76-.79-1.76-1.76v-5.94c0-1.65-2.05-2.37-3.11-1.11-2.9,3.46-6.03,6.14-9.4,8.02-4.6,2.58-9.98,3.87-16.14,3.87-10.68,0-19.17-3.9-25.49-11.69-3.1-3.84-5.47-8.37-7.1-13.59-1.63-5.21-2.45-11.09-2.45-17.62,0-13.06,3.34-23.41,10.02-31.05,6.68-7.64,15.62-11.45,26.83-11.45,6,0,11.15,1.29,15.47,3.88,2.99,1.7,5.68,4.08,8.07,7.14,1.03,1.31,3.13,.59,3.13-1.08v-5.66c0-.97,.79-1.76,1.76-1.76h22.56c.97,0,1.76,.79,1.76,1.76Zm-24.8,38.1c0-6.31-1.66-11.2-4.97-14.67-3.36-3.68-7.88-5.52-13.56-5.52s-10.14,1.79-13.4,5.36c-3.36,3.68-5.05,8.62-5.05,14.82s1.68,11.17,5.05,14.74c3.21,3.52,7.67,5.28,13.4,5.28s10.18-1.76,13.52-5.28c3.34-3.52,5.01-8.44,5.01-14.75Z"/><path class="c" d="M1085.36,296.14l-46.46-110.79c-.67-1.61,.51-3.38,2.25-3.38h28.12c1.03,0,1.95,.65,2.29,1.62l22.53,62.98c.02,.07,.05,.14,.06,.21,.36,1.4,.77,2.97,1.24,4.72,.09,.39,.19,.8,.29,1.23,.57,2.44,4,2.53,4.72,.12l.03-.09c.02-.05,.03-.1,.04-.16,.68-3.06,1.2-5.04,1.56-5.92l22.41-63.08c.35-.97,1.26-1.62,2.3-1.62h30.75c.49,0,.82,.5,.63,.94l-47.49,113.22c-.38,.9-1.27,1.49-2.25,1.49h-20.78c-.98,0-1.87-.59-2.25-1.49Z"/></g><g><path class="c" d="M233.52,293.47c3.48,3.48,6.61,7.66,9.61,13-5.21,10.83-10.08,25.08-15.49,44.7-2.17,7.86-9.33,13.31-17.5,13.31s-15.32-5.44-17.49-13.31c-10.04-36.31-18.18-54.23-30.08-66.11-11.88-11.9-29.81-20.04-66.11-30.06-7.86-2.18-13.31-9.34-13.31-17.5s5.44-15.34,13.31-17.5c36.3-10.03,54.23-18.17,66.11-30.06,11.9-11.9,20.04-29.8,30.08-66.11,2.16-7.87,9.33-13.33,17.49-13.33s15.33,5.46,17.5,13.33c5.42,19.61,10.29,33.86,15.49,44.69-3,5.34-6.13,9.53-9.61,13-10.26,10.26-26.75,17.58-60.86,27-12.98,3.58-22.05,15.49-22.05,28.98s9.07,25.38,22.04,28.98c34.12,9.41,50.61,16.73,60.87,27Z"/><path class="c" d="M495.88,237.49c0,8.16-5.45,15.32-13.33,17.5-36.3,10.02-54.22,18.17-66.11,30.06-11.88,11.88-20.03,29.8-30.06,66.11-2.17,7.86-9.33,13.31-17.5,13.31s-15.32-5.44-17.49-13.31c-5.42-19.62-10.3-33.87-15.5-44.7,2.99-5.34,6.13-9.52,9.59-13,10.27-10.27,26.77-17.59,60.86-27,12.99-3.59,22.06-15.51,22.06-28.98s-9.08-25.41-22.08-28.98c-34.08-9.42-50.58-16.74-60.85-27.01-3.47-3.48-6.6-7.66-9.59-13,5.21-10.82,10.08-25.07,15.5-44.69,2.16-7.87,9.33-13.33,17.49-13.33s15.33,5.46,17.5,13.33c10.03,36.3,18.17,54.21,30.06,66.11,11.9,11.89,29.81,20.03,66.11,30.06,7.88,2.16,13.33,9.33,13.33,17.5Z"/><path class="c" d="M416.51,237.49c0,8.16-5.45,15.32-13.33,17.5-36.3,10.02-54.22,18.17-66.11,30.06-11.88,11.88-20.03,29.8-30.06,66.11-2.17,7.86-9.33,13.31-17.5,13.31s-15.32-5.44-17.49-13.31c-10.04-36.31-18.18-54.23-30.08-66.11-11.88-11.9-29.81-20.04-66.11-30.06-7.86-2.18-13.31-9.34-13.31-17.5s5.44-15.34,13.31-17.5c36.3-10.03,54.23-18.17,66.11-30.06,11.9-11.9,20.04-29.8,30.08-66.11,2.16-7.87,9.33-13.33,17.49-13.33s15.33,5.46,17.5,13.33c10.03,36.3,18.17,54.21,30.06,66.11,11.9,11.89,29.81,20.03,66.11,30.06,7.88,2.16,13.33,9.33,13.33,17.5Z"/></g></svg>