<?xml version="1.0" encoding="UTF-8" standalone="no"?>
<svg
   id="a"
   viewBox="0 0 1200 720"
   version="1.1"
   sodipodi:docname="Logo_BG_purple.svg"
   inkscape:export-filename="aboutus.svg"
   inkscape:export-xdpi="96"
   inkscape:export-ydpi="96"
   width="1200"
   height="720"
   inkscape:version="1.2.2 (b0a8486541, 2022-12-01)"
   xmlns:inkscape="http://www.inkscape.org/namespaces/inkscape"
   xmlns:sodipodi="http://sodipodi.sourceforge.net/DTD/sodipodi-0.dtd"
   xmlns="http://www.w3.org/2000/svg"
   xmlns:svg="http://www.w3.org/2000/svg">
  <sodipodi:namedview
     id="namedview493"
     pagecolor="#ffffff"
     bordercolor="#000000"
     borderopacity="0.25"
     inkscape:showpageshadow="2"
     inkscape:pageopacity="0.0"
     inkscape:pagecheckerboard="0"
     inkscape:deskcolor="#d1d1d1"
     showgrid="false"
     inkscape:zoom="0.24334615"
     inkscape:cx="604.07777"
     inkscape:cy="425.32006"
     inkscape:window-width="1366"
     inkscape:window-height="699"
     inkscape:window-x="0"
     inkscape:window-y="32"
     inkscape:window-maximized="1"
     inkscape:current-layer="a" />
  <defs
     id="defs480">
    <style
       id="style478">.c{fill:#1a1736;}.d{fill:#ab8ed2;}</style>
  </defs>
  <rect
     class="d"
     width="1200"
     height="720"
     id="rect482"
     x="0"
     y="0"
     style="stroke-width:0.774597"
     inkscape:export-filename="rect482.svg"
     inkscape:export-xdpi="96"
     inkscape:export-ydpi="96" />
  <g
     id="g490"
     transform="matrix(0.68590994,0,0,0.68590994,188.45061,-51.542534)">
    <path
       class="c"
       d="m 463.24,736.74 c 8.49,8.49 16.15,18.71 23.47,31.74 -12.72,26.46 -24.62,61.26 -37.85,109.19 -5.31,19.21 -22.8,32.51 -42.74,32.51 -19.94,0 -37.42,-13.3 -42.71,-32.51 C 338.9,788.98 319,745.21 289.95,716.19 260.93,687.13 217.14,667.24 128.47,642.76 109.26,637.44 95.96,619.95 95.96,600.02 c 0,-19.93 13.3,-37.46 32.51,-42.74 88.67,-24.49 132.46,-44.39 161.48,-73.43 29.06,-29.06 48.95,-72.79 73.46,-161.46 5.29,-19.22 22.78,-32.56 42.71,-32.56 19.93,0 37.44,13.33 42.74,32.56 13.23,47.91 25.13,82.71 37.85,109.15 -7.32,13.05 -14.98,23.27 -23.47,31.76 -25.06,25.06 -65.35,42.94 -148.66,65.95 -31.69,8.74 -53.85,37.85 -53.85,70.78 0,32.93 22.14,61.99 53.83,70.78 83.33,22.99 123.62,40.87 148.68,65.95 z"
       id="path484" />
    <path
       class="c"
       d="m 1104.04,600.02 c 0,19.93 -13.32,37.42 -32.56,42.74 -88.67,24.48 -132.43,44.37 -161.48,73.43 -29.02,29.02 -48.92,72.79 -73.41,161.48 -5.31,19.21 -22.8,32.51 -42.74,32.51 -19.94,0 -37.42,-13.3 -42.71,-32.51 -13.25,-47.93 -25.15,-82.73 -37.86,-109.19 7.3,-13.03 14.96,-23.26 23.43,-31.74 25.1,-25.1 65.38,-42.96 148.66,-65.95 31.73,-8.77 53.89,-37.88 53.89,-70.78 0,-32.9 -22.18,-62.06 -53.92,-70.78 -83.24,-23.01 -123.53,-40.89 -148.62,-65.97 -8.47,-8.49 -16.13,-18.71 -23.43,-31.74 12.72,-26.44 24.62,-61.24 37.86,-109.15 5.29,-19.22 22.78,-32.56 42.71,-32.56 19.93,0 37.44,13.33 42.74,32.56 24.49,88.67 44.39,132.41 73.41,161.46 29.06,29.04 72.81,48.93 161.48,73.43 19.24,5.29 32.56,22.8 32.56,42.74 z"
       id="path486" />
    <path
       class="c"
       d="m 910.18,600.02 c 0,19.93 -13.32,37.42 -32.56,42.74 -88.67,24.48 -132.43,44.37 -161.48,73.43 -29.02,29.02 -48.92,72.79 -73.41,161.48 -5.31,19.21 -22.8,32.51 -42.74,32.51 -19.94,0 -37.42,-13.3 -42.71,-32.51 -24.51,-88.69 -44.41,-132.46 -73.46,-161.48 -29.02,-29.06 -72.81,-48.95 -161.48,-73.43 -19.21,-5.32 -32.51,-22.81 -32.51,-42.74 0,-19.93 13.3,-37.46 32.51,-42.74 88.67,-24.49 132.46,-44.39 161.48,-73.43 29.06,-29.06 48.95,-72.79 73.46,-161.46 5.29,-19.22 22.78,-32.56 42.71,-32.56 19.93,0 37.44,13.33 42.74,32.56 24.49,88.67 44.39,132.41 73.41,161.46 29.06,29.04 72.81,48.93 161.48,73.43 19.24,5.29 32.56,22.8 32.56,42.74 z"
       id="path488" />
  </g>
</svg>
